<mxfile host="65bd71144e">
    <diagram id="bnXlzsAWXeKj0ddrdmQ4" name="第 1 页">
        <mxGraphModel dx="3178" dy="1500" grid="0" gridSize="10" guides="1" tooltips="1" connect="1" arrows="1" fold="1" page="0" pageScale="1" pageWidth="827" pageHeight="1169" background="none" math="0" shadow="0">
            <root>
                <mxCell id="0"/>
                <mxCell id="1" parent="0"/>
                <mxCell id="36" value="Timestamp" style="swimlane;fontStyle=0;childLayout=stackLayout;horizontal=1;startSize=26;horizontalStack=0;resizeParent=1;resizeParentMax=0;resizeLast=0;collapsible=1;marginBottom=0;" parent="1" vertex="1">
                    <mxGeometry x="-2210" y="-152" width="340" height="348" as="geometry">
                        <mxRectangle x="-2244" y="-137" width="280" height="26" as="alternateBounds"/>
                    </mxGeometry>
                </mxCell>
                <mxCell id="37" value="+kMicroSecondsPerSecond:int" style="text;strokeColor=none;fillColor=none;align=left;verticalAlign=top;spacingLeft=4;spacingRight=4;overflow=hidden;rotatable=0;points=[[0,0.5],[1,0.5]];portConstraint=eastwest;" parent="36" vertex="1">
                    <mxGeometry y="26" width="340" height="26" as="geometry"/>
                </mxCell>
                <mxCell id="38" value="- microSecondsSinceEpoch_:int64_t" style="text;strokeColor=none;fillColor=none;align=left;verticalAlign=top;spacingLeft=4;spacingRight=4;overflow=hidden;rotatable=0;points=[[0,0.5],[1,0.5]];portConstraint=eastwest;" parent="36" vertex="1">
                    <mxGeometry y="52" width="340" height="26" as="geometry"/>
                </mxCell>
                <mxCell id="45" value="" style="line;strokeWidth=2;html=1;" parent="36" vertex="1">
                    <mxGeometry y="78" width="340" height="10" as="geometry"/>
                </mxCell>
                <mxCell id="39" value="&lt;&lt;create&gt;&gt; - Timestamp" style="text;strokeColor=none;fillColor=none;align=left;verticalAlign=top;spacingLeft=4;spacingRight=4;overflow=hidden;rotatable=0;points=[[0,0.5],[1,0.5]];portConstraint=eastwest;" parent="36" vertex="1">
                    <mxGeometry y="88" width="340" height="26" as="geometry"/>
                </mxCell>
                <mxCell id="46" value="&lt;&lt;create&gt;&gt; - Timestamp(microSecondsSinceEpoch_: int64_t)" style="text;strokeColor=none;fillColor=none;align=left;verticalAlign=top;spacingLeft=4;spacingRight=4;overflow=hidden;rotatable=0;points=[[0,0.5],[1,0.5]];portConstraint=eastwest;" parent="36" vertex="1">
                    <mxGeometry y="114" width="340" height="26" as="geometry"/>
                </mxCell>
                <mxCell id="47" value="+ swap(that: Timestamp): void" style="text;strokeColor=none;fillColor=none;align=left;verticalAlign=top;spacingLeft=4;spacingRight=4;overflow=hidden;rotatable=0;points=[[0,0.5],[1,0.5]];portConstraint=eastwest;" parent="36" vertex="1">
                    <mxGeometry y="140" width="340" height="26" as="geometry"/>
                </mxCell>
                <mxCell id="50" value="+ toString(): string" style="text;strokeColor=none;fillColor=none;align=left;verticalAlign=top;spacingLeft=4;spacingRight=4;overflow=hidden;rotatable=0;points=[[0,0.5],[1,0.5]];portConstraint=eastwest;" parent="36" vertex="1">
                    <mxGeometry y="166" width="340" height="26" as="geometry"/>
                </mxCell>
                <mxCell id="51" value="+ toFormattedString(): string " style="text;strokeColor=none;fillColor=none;align=left;verticalAlign=top;spacingLeft=4;spacingRight=4;overflow=hidden;rotatable=0;points=[[0,0.5],[1,0.5]];portConstraint=eastwest;" parent="36" vertex="1">
                    <mxGeometry y="192" width="340" height="26" as="geometry"/>
                </mxCell>
                <mxCell id="52" value="+ valid(): bool&#10; " style="text;strokeColor=none;fillColor=none;align=left;verticalAlign=top;spacingLeft=4;spacingRight=4;overflow=hidden;rotatable=0;points=[[0,0.5],[1,0.5]];portConstraint=eastwest;" vertex="1" parent="36">
                    <mxGeometry y="218" width="340" height="26" as="geometry"/>
                </mxCell>
                <mxCell id="53" value="+ microSecondsSinceEpoch(): int64_t" style="text;strokeColor=none;fillColor=none;align=left;verticalAlign=top;spacingLeft=4;spacingRight=4;overflow=hidden;rotatable=0;points=[[0,0.5],[1,0.5]];portConstraint=eastwest;" vertex="1" parent="36">
                    <mxGeometry y="244" width="340" height="26" as="geometry"/>
                </mxCell>
                <mxCell id="54" value="+ secondsSinceEpoch(): time_t" style="text;strokeColor=none;fillColor=none;align=left;verticalAlign=top;spacingLeft=4;spacingRight=4;overflow=hidden;rotatable=0;points=[[0,0.5],[1,0.5]];portConstraint=eastwest;" vertex="1" parent="36">
                    <mxGeometry y="270" width="340" height="26" as="geometry"/>
                </mxCell>
                <mxCell id="55" value="+ now(): Timestamp" style="text;strokeColor=none;fillColor=none;align=left;verticalAlign=top;spacingLeft=4;spacingRight=4;overflow=hidden;rotatable=0;points=[[0,0.5],[1,0.5]];portConstraint=eastwest;" vertex="1" parent="36">
                    <mxGeometry y="296" width="340" height="26" as="geometry"/>
                </mxCell>
                <mxCell id="56" value="+ invaild(): Timestamp" style="text;strokeColor=none;fillColor=none;align=left;verticalAlign=top;spacingLeft=4;spacingRight=4;overflow=hidden;rotatable=0;points=[[0,0.5],[1,0.5]];portConstraint=eastwest;" vertex="1" parent="36">
                    <mxGeometry y="322" width="340" height="26" as="geometry"/>
                </mxCell>
                <mxCell id="57" value="AtomicIntegerT" style="swimlane;fontStyle=0;childLayout=stackLayout;horizontal=1;startSize=26;horizontalStack=0;resizeParent=1;resizeParentMax=0;resizeLast=0;collapsible=1;marginBottom=0;" vertex="1" parent="1">
                    <mxGeometry x="-2209" y="221" width="340" height="348" as="geometry">
                        <mxRectangle x="-2244" y="-137" width="280" height="26" as="alternateBounds"/>
                    </mxGeometry>
                </mxCell>
                <mxCell id="58" value="- value_:T" style="text;strokeColor=none;fillColor=none;align=left;verticalAlign=top;spacingLeft=4;spacingRight=4;overflow=hidden;rotatable=0;points=[[0,0.5],[1,0.5]];portConstraint=eastwest;" vertex="1" parent="57">
                    <mxGeometry y="26" width="340" height="26" as="geometry"/>
                </mxCell>
                <mxCell id="60" value="" style="line;strokeWidth=2;html=1;" vertex="1" parent="57">
                    <mxGeometry y="52" width="340" height="10" as="geometry"/>
                </mxCell>
                <mxCell id="61" value="&lt;&lt;create&gt;&gt; - AtomicIntegerT" style="text;strokeColor=none;fillColor=none;align=left;verticalAlign=top;spacingLeft=4;spacingRight=4;overflow=hidden;rotatable=0;points=[[0,0.5],[1,0.5]];portConstraint=eastwest;" vertex="1" parent="57">
                    <mxGeometry y="62" width="340" height="26" as="geometry"/>
                </mxCell>
                <mxCell id="62" value="+ get(): T" style="text;strokeColor=none;fillColor=none;align=left;verticalAlign=top;spacingLeft=4;spacingRight=4;overflow=hidden;rotatable=0;points=[[0,0.5],[1,0.5]];portConstraint=eastwest;" vertex="1" parent="57">
                    <mxGeometry y="88" width="340" height="26" as="geometry"/>
                </mxCell>
                <mxCell id="63" value="+ getAndAdd(x: T): T" style="text;strokeColor=none;fillColor=none;align=left;verticalAlign=top;spacingLeft=4;spacingRight=4;overflow=hidden;rotatable=0;points=[[0,0.5],[1,0.5]];portConstraint=eastwest;" vertex="1" parent="57">
                    <mxGeometry y="114" width="340" height="26" as="geometry"/>
                </mxCell>
                <mxCell id="64" value="+ addAndGet(x: T): T" style="text;strokeColor=none;fillColor=none;align=left;verticalAlign=top;spacingLeft=4;spacingRight=4;overflow=hidden;rotatable=0;points=[[0,0.5],[1,0.5]];portConstraint=eastwest;" vertex="1" parent="57">
                    <mxGeometry y="140" width="340" height="26" as="geometry"/>
                </mxCell>
                <mxCell id="72" value="+ getAndSet(newValue: T): T" style="text;strokeColor=none;fillColor=none;align=left;verticalAlign=top;spacingLeft=4;spacingRight=4;overflow=hidden;rotatable=0;points=[[0,0.5],[1,0.5]];portConstraint=eastwest;" vertex="1" parent="57">
                    <mxGeometry y="166" width="340" height="26" as="geometry"/>
                </mxCell>
                <mxCell id="65" value="+ incrementAndGet(): T&#10;" style="text;strokeColor=none;fillColor=none;align=left;verticalAlign=top;spacingLeft=4;spacingRight=4;overflow=hidden;rotatable=0;points=[[0,0.5],[1,0.5]];portConstraint=eastwest;" vertex="1" parent="57">
                    <mxGeometry y="192" width="340" height="26" as="geometry"/>
                </mxCell>
                <mxCell id="66" value="+ decrementAndGet(): T&#10;" style="text;strokeColor=none;fillColor=none;align=left;verticalAlign=top;spacingLeft=4;spacingRight=4;overflow=hidden;rotatable=0;points=[[0,0.5],[1,0.5]];portConstraint=eastwest;" vertex="1" parent="57">
                    <mxGeometry y="218" width="340" height="26" as="geometry"/>
                </mxCell>
                <mxCell id="67" value="+ microSecondsSinceEpoch(): int64_t" style="text;strokeColor=none;fillColor=none;align=left;verticalAlign=top;spacingLeft=4;spacingRight=4;overflow=hidden;rotatable=0;points=[[0,0.5],[1,0.5]];portConstraint=eastwest;" vertex="1" parent="57">
                    <mxGeometry y="244" width="340" height="26" as="geometry"/>
                </mxCell>
                <mxCell id="68" value="+ add(x: T): void" style="text;strokeColor=none;fillColor=none;align=left;verticalAlign=top;spacingLeft=4;spacingRight=4;overflow=hidden;rotatable=0;points=[[0,0.5],[1,0.5]];portConstraint=eastwest;" vertex="1" parent="57">
                    <mxGeometry y="270" width="340" height="26" as="geometry"/>
                </mxCell>
                <mxCell id="69" value="+ increment(): void" style="text;strokeColor=none;fillColor=none;align=left;verticalAlign=top;spacingLeft=4;spacingRight=4;overflow=hidden;rotatable=0;points=[[0,0.5],[1,0.5]];portConstraint=eastwest;" vertex="1" parent="57">
                    <mxGeometry y="296" width="340" height="26" as="geometry"/>
                </mxCell>
                <mxCell id="70" value="+ decrement(): void" style="text;strokeColor=none;fillColor=none;align=left;verticalAlign=top;spacingLeft=4;spacingRight=4;overflow=hidden;rotatable=0;points=[[0,0.5],[1,0.5]];portConstraint=eastwest;" vertex="1" parent="57">
                    <mxGeometry y="322" width="340" height="26" as="geometry"/>
                </mxCell>
            </root>
        </mxGraphModel>
    </diagram>
</mxfile>